<svg xmlns="http://www.w3.org/2000/svg" width="468" height="467" viewBox="0 0 468 467">
    <defs>
        <radialGradient id="prefix__a" cx="50%" cy="50%" r="31.776%" fx="50%" fy="50%">
            <stop offset="0%" stop-color="#A23FA5"/>
            <stop offset="100%" stop-color="#A23FA5" stop-opacity="0"/>
        </radialGradient>
    </defs>
    <g fill="none" fill-rule="evenodd" transform="translate(-23 -23)">
        <g style="mix-blend-mode:overlay" stroke="#FFF" stroke-width=".35">
            <path d="M58.766 170.734L171.317 58.182M167.018 58.182L58.766 166.434M58.766 162.135L162.718 58.182M58.766 157.835L158.419 58.182M58.766 153.535L154.119 58.182M58.766 149.236L149.819 58.182M58.766 144.936L145.52 58.182M58.766 140.636L141.22 58.182M58.766 136.337L136.92 58.182M58.766 132.037L132.621 58.182M58.766 127.738L128.321 58.182M58.766 123.438L124.021 58.182M58.766 119.138L119.722 58.182M58.766 114.839L115.422 58.182M58.766 110.539L111.123 58.182M58.766 106.239L106.823 58.182M58.956 102.13L102.523 58.182M58.766 97.64L98.224 58.182M58.766 93.341L93.924 58.182M58.766 89.041L89.624 58.182M58.766 84.741L85.289 58.218M58.766 80.442L81.025 58.182M58.766 76.142L76.725 58.182M58.766 71.842L72.426 58.182M58.766 67.543L68.126 58.182M58.766 63.243L63.827 58.182M58.766 58.943L59.527 58.182M295.612 57.971L408.163 170.522M408.163 166.222L299.911 57.971M304.211 57.971L408.163 161.923M308.51 57.971L408.163 157.623M312.81 57.971L408.163 153.324M317.11 57.971L408.163 149.024M321.409 57.971L408.163 144.724M325.709 57.971L408.163 140.425M330.009 57.971L408.163 136.125M334.308 57.971L408.163 131.825M338.608 57.971L408.163 127.526M342.908 57.971L408.163 123.226M347.207 57.971L408.163 118.927M351.507 57.971L408.163 114.627M355.807 57.971L408.163 110.327M360.106 57.971L408.163 106.028M364.216 58.161L408.163 101.728M368.705 57.971L408.163 97.428M373.005 57.971L408.163 93.129M377.305 57.971L408.163 88.829M381.604 57.971L408.127 84.494M385.904 57.971L408.163 80.23M390.204 57.971L408.163 75.93M394.503 57.971L408.163 71.631M398.803 57.971L408.163 67.331M403.103 57.971L408.163 63.031M407.402 57.971L408.163 58.732M408.283 296.485L295.732 409.036M300.031 409.036L408.283 300.784M408.283 305.084L304.331 409.036M408.283 309.384L308.631 409.036M408.283 313.683L312.93 409.036M408.283 317.983L317.23 409.036M408.283 322.283L321.53 409.036M408.283 326.582L325.829 409.036M408.283 330.882L330.129 409.036M408.283 335.181L334.428 409.036M408.283 339.481L338.728 409.036M408.283 343.781L343.028 409.036M408.283 348.08L347.327 409.036M408.283 352.38L351.627 409.036M408.283 356.68L355.927 409.036M408.283 360.979L360.226 409.036M408.093 365.089L364.526 409.036M408.283 369.578L368.825 409.036M408.283 373.878L373.125 409.036M408.283 378.178L377.425 409.036M408.283 382.477L381.76 409M408.283 386.777L386.024 409.036M408.283 391.077L390.324 409.036M408.283 395.376L394.623 409.036M408.283 399.676L398.923 409.036M408.283 403.976L403.223 409.036M408.283 408.275L407.522 409.036M171.313 408.96L58.762 296.409M58.762 300.708L167.013 408.96M162.714 408.96L58.762 305.008M158.414 408.96L58.762 309.307M154.115 408.96L58.762 313.607M149.815 408.96L58.762 317.907M145.515 408.96L58.762 322.206M141.216 408.96L58.762 326.506M136.916 408.96L58.762 330.806M132.616 408.96L58.762 335.105M128.317 408.96L58.762 339.405M124.017 408.96L58.762 343.704M119.718 408.96L58.762 348.004M115.418 408.96L58.762 352.304M111.118 408.96L58.762 356.603M106.819 408.96L58.762 360.903M102.709 408.77L58.762 365.203M98.219 408.96L58.762 369.502M93.92 408.96L58.762 373.802M89.62 408.96L58.762 378.102M85.32 408.96L58.798 382.437M81.021 408.96L58.762 386.701M76.721 408.96L58.762 391M72.422 408.96L58.762 395.3M68.122 408.96L58.762 399.6M63.822 408.96L58.762 403.899M59.523 408.96L58.762 408.199" transform="translate(23 23)"/>
            <path d="M171.399 111.167L416.202 111.167 416.202 355.971 171.399 355.971z" transform="translate(23 23) rotate(-45 293.8 233.569)"/>
            <path d="M174.441 114.21L413.16 114.21 413.16 352.928 174.441 352.928z" transform="translate(23 23) rotate(-45 293.8 233.569)"/>
            <path d="M177.483 117.252L410.118 117.252 410.118 349.886 177.483 349.886z" transform="translate(23 23) rotate(-45 293.8 233.569)"/>
            <path d="M180.525 120.294L407.076 120.294 407.076 346.844 180.525 346.844z" transform="translate(23 23) rotate(-45 293.8 233.569)"/>
            <path d="M183.567 123.336L404.033 123.336 404.033 343.802 183.567 343.802z" transform="translate(23 23) rotate(-45 293.8 233.569)"/>
            <path d="M186.61 126.378L400.991 126.378 400.991 340.76 186.61 340.76z" transform="translate(23 23) rotate(-45 293.8 233.569)"/>
            <path d="M189.652 129.42L397.949 129.42 397.949 337.718 189.652 337.718z" transform="translate(23 23) rotate(-45 293.8 233.569)"/>
            <path d="M192.694 132.462L394.907 132.462 394.907 334.676 192.694 334.676z" transform="translate(23 23) rotate(-45 293.8 233.569)"/>
            <path d="M195.736 135.505L391.865 135.505 391.865 331.633 195.736 331.633z" transform="translate(23 23) rotate(-45 293.8 233.569)"/>
            <path d="M198.778 138.547L388.823 138.547 388.823 328.591 198.778 328.591z" transform="translate(23 23) rotate(-45 293.8 233.569)"/>
            <path d="M201.82 141.589L385.781 141.589 385.781 325.549 201.82 325.549z" transform="translate(23 23) rotate(-45 293.8 233.569)"/>
            <path d="M204.862 144.631L382.738 144.631 382.738 322.507 204.862 322.507z" transform="translate(23 23) rotate(-45 293.8 233.569)"/>
            <path d="M207.905 147.673L379.696 147.673 379.696 319.465 207.905 319.465z" transform="translate(23 23) rotate(-45 293.8 233.569)"/>
            <path d="M210.947 150.715L376.654 150.715 376.654 316.423 210.947 316.423z" transform="translate(23 23) rotate(-45 293.8 233.569)"/>
            <path d="M213.989 153.757L373.612 153.757 373.612 313.381 213.989 313.381z" transform="translate(23 23) rotate(-45 293.8 233.569)"/>
            <path d="M217.031 156.8L370.57 156.8 370.57 310.338 217.031 310.338z" transform="translate(23 23) rotate(-45 293.8 233.569)"/>
            <path d="M220.073 159.842L367.528 159.842 367.528 307.296 220.073 307.296z" transform="translate(23 23) rotate(-45 293.8 233.569)"/>
            <path d="M223.115 162.884L364.486 162.884 364.486 304.254 223.115 304.254z" transform="translate(23 23) rotate(-45 293.8 233.569)"/>
            <path d="M226.157 165.926L361.443 165.926 361.443 301.212 226.157 301.212z" transform="translate(23 23) rotate(-45 293.8 233.569)"/>
            <path d="M229.2 168.968L358.401 168.968 358.401 298.17 229.2 298.17z" transform="translate(23 23) rotate(-45 293.8 233.569)"/>
            <path d="M232.242 172.01L355.359 172.01 355.359 295.128 232.242 295.128z" transform="translate(23 23) rotate(-45 293.8 233.569)"/>
            <path d="M235.284 175.052L352.317 175.052 352.317 292.086 235.284 292.086z" transform="translate(23 23) rotate(-45 293.8 233.569)"/>
            <path d="M238.326 178.095L349.275 178.095 349.275 289.043 238.326 289.043z" transform="translate(23 23) rotate(-45 293.8 233.569)"/>
            <path d="M241.368 181.137L346.233 181.137 346.233 286.001 241.368 286.001z" transform="translate(23 23) rotate(-45 293.8 233.569)"/>
            <path d="M244.41 184.179L343.191 184.179 343.191 282.959 244.41 282.959z" transform="translate(23 23) rotate(-45 293.8 233.569)"/>
            <path d="M247.452 187.221L340.148 187.221 340.148 279.917 247.452 279.917z" transform="translate(23 23) rotate(-45 293.8 233.569)"/>
            <path d="M250.495 190.263L337.106 190.263 337.106 276.875 250.495 276.875z" transform="translate(23 23) rotate(-45 293.8 233.569)"/>
            <path d="M253.537 193.305L334.064 193.305 334.064 273.833 253.537 273.833z" transform="translate(23 23) rotate(-45 293.8 233.569)"/>
            <path d="M256.579 196.348L331.022 196.348 331.022 270.791 256.579 270.791z" transform="translate(23 23) rotate(-45 293.8 233.569)"/>
            <path d="M259.621 199.39L327.98 199.39 327.98 267.748 259.621 267.748z" transform="translate(23 23) rotate(-45 293.8 233.569)"/>
            <path d="M262.663 202.432L324.938 202.432 324.938 264.706 262.663 264.706z" transform="translate(23 23) rotate(-45 293.8 233.569)"/>
            <path d="M265.705 205.474L321.896 205.474 321.896 261.664 265.705 261.664z" transform="translate(23 23) rotate(-45 293.8 233.569)"/>
            <path d="M268.747 208.516L318.853 208.516 318.853 258.622 268.747 258.622z" transform="translate(23 23) rotate(-45 293.8 233.569)"/>
            <path d="M271.79 211.558L315.811 211.558 315.811 255.58 271.79 255.58z" transform="translate(23 23) rotate(-45 293.8 233.569)"/>
            <path d="M274.832 214.6L312.769 214.6 312.769 252.538 274.832 252.538z" transform="translate(23 23) rotate(-45 293.8 233.569)"/>
            <path d="M277.874 217.643L309.727 217.643 309.727 249.496 277.874 249.496z" transform="translate(23 23) rotate(-45 293.8 233.569)"/>
            <path d="M280.916 220.685L306.685 220.685 306.685 246.453 280.916 246.453z" transform="translate(23 23) rotate(-45 293.8 233.569)"/>
            <path d="M283.958 223.727L303.643 223.727 303.643 243.411 283.958 243.411z" transform="translate(23 23) rotate(-45 293.8 233.569)"/>
            <path d="M287 226.769L300.601 226.769 300.601 240.369 287 240.369z" transform="translate(23 23) rotate(-45 293.8 233.569)"/>
            <path d="M50.936 111.167L295.739 111.167 295.739 355.971 50.936 355.971z" transform="translate(23 23) rotate(-45 173.338 233.569)"/>
            <path d="M53.978 114.21L292.697 114.21 292.697 352.928 53.978 352.928z" transform="translate(23 23) rotate(-45 173.338 233.569)"/>
            <path d="M57.02 117.252L289.655 117.252 289.655 349.886 57.02 349.886z" transform="translate(23 23) rotate(-45 173.338 233.569)"/>
            <path d="M60.063 120.294L286.613 120.294 286.613 346.844 60.063 346.844z" transform="translate(23 23) rotate(-45 173.338 233.569)"/>
            <path d="M63.105 123.336L283.571 123.336 283.571 343.802 63.105 343.802z" transform="translate(23 23) rotate(-45 173.338 233.569)"/>
            <path d="M66.147 126.378L280.529 126.378 280.529 340.76 66.147 340.76z" transform="translate(23 23) rotate(-45 173.338 233.569)"/>
            <path d="M69.189 129.42L277.486 129.42 277.486 337.718 69.189 337.718z" transform="translate(23 23) rotate(-45 173.338 233.569)"/>
            <path d="M72.231 132.462L274.444 132.462 274.444 334.676 72.231 334.676z" transform="translate(23 23) rotate(-45 173.338 233.569)"/>
            <path d="M75.273 135.505L271.402 135.505 271.402 331.633 75.273 331.633z" transform="translate(23 23) rotate(-45 173.338 233.569)"/>
            <path d="M78.315 138.547L268.36 138.547 268.36 328.591 78.315 328.591z" transform="translate(23 23) rotate(-45 173.338 233.569)"/>
            <path d="M81.358 141.589L265.318 141.589 265.318 325.549 81.358 325.549z" transform="translate(23 23) rotate(-45 173.338 233.569)"/>
            <path d="M84.4 144.631L262.276 144.631 262.276 322.507 84.4 322.507z" transform="translate(23 23) rotate(-45 173.338 233.569)"/>
            <path d="M87.442 147.673L259.233 147.673 259.233 319.465 87.442 319.465z" transform="translate(23 23) rotate(-45 173.338 233.569)"/>
            <path d="M90.484 150.715L256.191 150.715 256.191 316.423 90.484 316.423z" transform="translate(23 23) rotate(-45 173.338 233.569)"/>
            <path d="M93.526 153.757L253.149 153.757 253.149 313.381 93.526 313.381z" transform="translate(23 23) rotate(-45 173.338 233.569)"/>
            <path d="M96.568 156.8L250.107 156.8 250.107 310.338 96.568 310.338z" transform="translate(23 23) rotate(-45 173.338 233.569)"/>
            <path d="M99.61 159.842L247.065 159.842 247.065 307.296 99.61 307.296z" transform="translate(23 23) rotate(-45 173.338 233.569)"/>
            <path d="M102.653 162.884L244.023 162.884 244.023 304.254 102.653 304.254z" transform="translate(23 23) rotate(-45 173.338 233.569)"/>
            <path d="M105.695 165.926L240.981 165.926 240.981 301.212 105.695 301.212z" transform="translate(23 23) rotate(-45 173.338 233.569)"/>
            <path d="M108.737 168.968L237.938 168.968 237.938 298.17 108.737 298.17z" transform="translate(23 23) rotate(-45 173.338 233.569)"/>
            <path d="M111.779 172.01L234.896 172.01 234.896 295.128 111.779 295.128z" transform="translate(23 23) rotate(-45 173.338 233.569)"/>
            <path d="M114.821 175.052L231.854 175.052 231.854 292.086 114.821 292.086z" transform="translate(23 23) rotate(-45 173.338 233.569)"/>
            <path d="M117.863 178.095L228.812 178.095 228.812 289.043 117.863 289.043z" transform="translate(23 23) rotate(-45 173.338 233.569)"/>
            <path d="M120.905 181.137L225.77 181.137 225.77 286.001 120.905 286.001z" transform="translate(23 23) rotate(-45 173.338 233.569)"/>
            <path d="M123.948 184.179L222.728 184.179 222.728 282.959 123.948 282.959z" transform="translate(23 23) rotate(-45 173.338 233.569)"/>
            <path d="M126.99 187.221L219.686 187.221 219.686 279.917 126.99 279.917z" transform="translate(23 23) rotate(-45 173.338 233.569)"/>
            <path d="M130.032 190.263L216.643 190.263 216.643 276.875 130.032 276.875z" transform="translate(23 23) rotate(-45 173.338 233.569)"/>
            <path d="M133.074 193.305L213.601 193.305 213.601 273.833 133.074 273.833z" transform="translate(23 23) rotate(-45 173.338 233.569)"/>
            <path d="M136.116 196.348L210.559 196.348 210.559 270.791 136.116 270.791z" transform="translate(23 23) rotate(-45 173.338 233.569)"/>
            <path d="M139.158 199.39L207.517 199.39 207.517 267.748 139.158 267.748z" transform="translate(23 23) rotate(-45 173.338 233.569)"/>
            <path d="M142.2 202.432L204.475 202.432 204.475 264.706 142.2 264.706z" transform="translate(23 23) rotate(-45 173.338 233.569)"/>
            <path d="M145.243 205.474L201.433 205.474 201.433 261.664 145.243 261.664z" transform="translate(23 23) rotate(-45 173.338 233.569)"/>
            <path d="M148.285 208.516L198.391 208.516 198.391 258.622 148.285 258.622z" transform="translate(23 23) rotate(-45 173.338 233.569)"/>
            <path d="M151.327 211.558L195.348 211.558 195.348 255.58 151.327 255.58z" transform="translate(23 23) rotate(-45 173.338 233.569)"/>
            <path d="M154.369 214.6L192.306 214.6 192.306 252.538 154.369 252.538z" transform="translate(23 23) rotate(-45 173.338 233.569)"/>
            <path d="M157.411 217.643L189.264 217.643 189.264 249.496 157.411 249.496z" transform="translate(23 23) rotate(-45 173.338 233.569)"/>
            <path d="M160.453 220.685L186.222 220.685 186.222 246.453 160.453 246.453z" transform="translate(23 23) rotate(-45 173.338 233.569)"/>
            <path d="M163.495 223.727L183.18 223.727 183.18 243.411 163.495 243.411z" transform="translate(23 23) rotate(-45 173.338 233.569)"/>
            <path d="M166.538 226.769L180.138 226.769 180.138 240.369 166.538 240.369z" transform="translate(23 23) rotate(-45 173.338 233.569)"/>
            <path d="M111.167 171.399L355.971 171.399 355.971 416.202 111.167 416.202z" transform="translate(23 23) rotate(-45 233.569 293.8)"/>
            <path d="M114.21 174.441L352.928 174.441 352.928 413.16 114.21 413.16z" transform="translate(23 23) rotate(-45 233.569 293.8)"/>
            <path d="M117.252 177.483L349.886 177.483 349.886 410.118 117.252 410.118z" transform="translate(23 23) rotate(-45 233.569 293.8)"/>
            <path d="M120.294 180.525L346.844 180.525 346.844 407.076 120.294 407.076z" transform="translate(23 23) rotate(-45 233.569 293.8)"/>
            <path d="M123.336 183.567L343.802 183.567 343.802 404.033 123.336 404.033z" transform="translate(23 23) rotate(-45 233.569 293.8)"/>
            <path d="M126.378 186.61L340.76 186.61 340.76 400.991 126.378 400.991z" transform="translate(23 23) rotate(-45 233.569 293.8)"/>
            <path d="M129.42 189.652L337.718 189.652 337.718 397.949 129.42 397.949z" transform="translate(23 23) rotate(-45 233.569 293.8)"/>
            <path d="M132.462 192.694L334.676 192.694 334.676 394.907 132.462 394.907z" transform="translate(23 23) rotate(-45 233.569 293.8)"/>
            <path d="M135.505 195.736L331.633 195.736 331.633 391.865 135.505 391.865z" transform="translate(23 23) rotate(-45 233.569 293.8)"/>
            <path d="M138.547 198.778L328.591 198.778 328.591 388.823 138.547 388.823z" transform="translate(23 23) rotate(-45 233.569 293.8)"/>
            <path d="M141.589 201.82L325.549 201.82 325.549 385.781 141.589 385.781z" transform="translate(23 23) rotate(-45 233.569 293.8)"/>
            <path d="M144.631 204.862L322.507 204.862 322.507 382.738 144.631 382.738z" transform="translate(23 23) rotate(-45 233.569 293.8)"/>
            <path d="M147.673 207.905L319.465 207.905 319.465 379.696 147.673 379.696z" transform="translate(23 23) rotate(-45 233.569 293.8)"/>
            <path d="M150.715 210.947L316.423 210.947 316.423 376.654 150.715 376.654z" transform="translate(23 23) rotate(-45 233.569 293.8)"/>
            <path d="M153.757 213.989L313.381 213.989 313.381 373.612 153.757 373.612z" transform="translate(23 23) rotate(-45 233.569 293.8)"/>
            <path d="M156.8 217.031L310.338 217.031 310.338 370.57 156.8 370.57z" transform="translate(23 23) rotate(-45 233.569 293.8)"/>
            <path d="M159.842 220.073L307.296 220.073 307.296 367.528 159.842 367.528z" transform="translate(23 23) rotate(-45 233.569 293.8)"/>
            <path d="M162.884 223.115L304.254 223.115 304.254 364.486 162.884 364.486z" transform="translate(23 23) rotate(-45 233.569 293.8)"/>
            <path d="M165.926 226.157L301.212 226.157 301.212 361.443 165.926 361.443z" transform="translate(23 23) rotate(-45 233.569 293.8)"/>
            <path d="M168.968 229.2L298.17 229.2 298.17 358.401 168.968 358.401z" transform="translate(23 23) rotate(-45 233.569 293.8)"/>
            <path d="M172.01 232.242L295.128 232.242 295.128 355.359 172.01 355.359z" transform="translate(23 23) rotate(-45 233.569 293.8)"/>
            <path d="M175.052 235.284L292.086 235.284 292.086 352.317 175.052 352.317z" transform="translate(23 23) rotate(-45 233.569 293.8)"/>
            <path d="M178.095 238.326L289.043 238.326 289.043 349.275 178.095 349.275z" transform="translate(23 23) rotate(-45 233.569 293.8)"/>
            <path d="M181.137 241.368L286.001 241.368 286.001 346.233 181.137 346.233z" transform="translate(23 23) rotate(-45 233.569 293.8)"/>
            <path d="M184.179 244.41L282.959 244.41 282.959 343.191 184.179 343.191z" transform="translate(23 23) rotate(-45 233.569 293.8)"/>
            <path d="M187.221 247.452L279.917 247.452 279.917 340.148 187.221 340.148z" transform="translate(23 23) rotate(-45 233.569 293.8)"/>
            <path d="M190.263 250.495L276.875 250.495 276.875 337.106 190.263 337.106z" transform="translate(23 23) rotate(-45 233.569 293.8)"/>
            <path d="M193.305 253.537L273.833 253.537 273.833 334.064 193.305 334.064z" transform="translate(23 23) rotate(-45 233.569 293.8)"/>
            <path d="M196.348 256.579L270.791 256.579 270.791 331.022 196.348 331.022z" transform="translate(23 23) rotate(-45 233.569 293.8)"/>
            <path d="M199.39 259.621L267.748 259.621 267.748 327.98 199.39 327.98z" transform="translate(23 23) rotate(-45 233.569 293.8)"/>
            <path d="M202.432 262.663L264.706 262.663 264.706 324.938 202.432 324.938z" transform="translate(23 23) rotate(-45 233.569 293.8)"/>
            <path d="M205.474 265.705L261.664 265.705 261.664 321.896 205.474 321.896z" transform="translate(23 23) rotate(-45 233.569 293.8)"/>
            <path d="M208.516 268.747L258.622 268.747 258.622 318.853 208.516 318.853z" transform="translate(23 23) rotate(-45 233.569 293.8)"/>
            <path d="M211.558 271.79L255.58 271.79 255.58 315.811 211.558 315.811z" transform="translate(23 23) rotate(-45 233.569 293.8)"/>
            <path d="M214.6 274.832L252.538 274.832 252.538 312.769 214.6 312.769z" transform="translate(23 23) rotate(-45 233.569 293.8)"/>
            <path d="M217.643 277.874L249.496 277.874 249.496 309.727 217.643 309.727z" transform="translate(23 23) rotate(-45 233.569 293.8)"/>
            <path d="M220.685 280.916L246.453 280.916 246.453 306.685 220.685 306.685z" transform="translate(23 23) rotate(-45 233.569 293.8)"/>
            <path d="M223.727 283.958L243.411 283.958 243.411 303.643 223.727 303.643z" transform="translate(23 23) rotate(-45 233.569 293.8)"/>
            <path d="M226.769 287L240.369 287 240.369 300.601 226.769 300.601z" transform="translate(23 23) rotate(-45 233.569 293.8)"/>
            <path d="M111.167 50.936L355.971 50.936 355.971 295.739 111.167 295.739z" transform="translate(23 23) rotate(-45 233.569 173.338)"/>
            <path d="M114.21 53.978L352.928 53.978 352.928 292.697 114.21 292.697z" transform="translate(23 23) rotate(-45 233.569 173.338)"/>
            <path d="M117.252 57.02L349.886 57.02 349.886 289.655 117.252 289.655z" transform="translate(23 23) rotate(-45 233.569 173.338)"/>
            <path d="M120.294 60.063L346.844 60.063 346.844 286.613 120.294 286.613z" transform="translate(23 23) rotate(-45 233.569 173.338)"/>
            <path d="M123.336 63.105L343.802 63.105 343.802 283.571 123.336 283.571z" transform="translate(23 23) rotate(-45 233.569 173.338)"/>
            <path d="M126.378 66.147L340.76 66.147 340.76 280.529 126.378 280.529z" transform="translate(23 23) rotate(-45 233.569 173.338)"/>
            <path d="M129.42 69.189L337.718 69.189 337.718 277.486 129.42 277.486z" transform="translate(23 23) rotate(-45 233.569 173.338)"/>
            <path d="M132.462 72.231L334.676 72.231 334.676 274.444 132.462 274.444z" transform="translate(23 23) rotate(-45 233.569 173.338)"/>
            <path d="M135.505 75.273L331.633 75.273 331.633 271.402 135.505 271.402z" transform="translate(23 23) rotate(-45 233.569 173.338)"/>
            <path d="M138.547 78.315L328.591 78.315 328.591 268.36 138.547 268.36z" transform="translate(23 23) rotate(-45 233.569 173.338)"/>
            <path d="M141.589 81.358L325.549 81.358 325.549 265.318 141.589 265.318z" transform="translate(23 23) rotate(-45 233.569 173.338)"/>
            <path d="M144.631 84.4L322.507 84.4 322.507 262.276 144.631 262.276z" transform="translate(23 23) rotate(-45 233.569 173.338)"/>
            <path d="M147.673 87.442L319.465 87.442 319.465 259.233 147.673 259.233z" transform="translate(23 23) rotate(-45 233.569 173.338)"/>
            <path d="M150.715 90.484L316.423 90.484 316.423 256.191 150.715 256.191z" transform="translate(23 23) rotate(-45 233.569 173.338)"/>
            <path d="M153.757 93.526L313.381 93.526 313.381 253.149 153.757 253.149z" transform="translate(23 23) rotate(-45 233.569 173.338)"/>
            <path d="M156.8 96.568L310.338 96.568 310.338 250.107 156.8 250.107z" transform="translate(23 23) rotate(-45 233.569 173.338)"/>
            <path d="M159.842 99.61L307.296 99.61 307.296 247.065 159.842 247.065z" transform="translate(23 23) rotate(-45 233.569 173.338)"/>
            <path d="M162.884 102.653L304.254 102.653 304.254 244.023 162.884 244.023z" transform="translate(23 23) rotate(-45 233.569 173.338)"/>
            <path d="M165.926 105.695L301.212 105.695 301.212 240.981 165.926 240.981z" transform="translate(23 23) rotate(-45 233.569 173.338)"/>
            <path d="M168.968 108.737L298.17 108.737 298.17 237.938 168.968 237.938z" transform="translate(23 23) rotate(-45 233.569 173.338)"/>
            <path d="M172.01 111.779L295.128 111.779 295.128 234.896 172.01 234.896z" transform="translate(23 23) rotate(-45 233.569 173.338)"/>
            <path d="M175.053 114.821L292.086 114.821 292.086 231.854 175.053 231.854z" transform="translate(23 23) rotate(-45 233.569 173.338)"/>
            <path d="M178.095 117.863L289.043 117.863 289.043 228.812 178.095 228.812z" transform="translate(23 23) rotate(-45 233.569 173.338)"/>
            <path d="M181.137 120.905L286.001 120.905 286.001 225.77 181.137 225.77z" transform="translate(23 23) rotate(-45 233.569 173.338)"/>
            <path d="M184.179 123.948L282.959 123.948 282.959 222.728 184.179 222.728z" transform="translate(23 23) rotate(-45 233.569 173.338)"/>
            <path d="M187.221 126.99L279.917 126.99 279.917 219.686 187.221 219.686z" transform="translate(23 23) rotate(-45 233.569 173.338)"/>
            <path d="M190.263 130.032L276.875 130.032 276.875 216.643 190.263 216.643z" transform="translate(23 23) rotate(-45 233.569 173.338)"/>
            <path d="M193.305 133.074L273.833 133.074 273.833 213.601 193.305 213.601z" transform="translate(23 23) rotate(-45 233.569 173.338)"/>
            <path d="M196.348 136.116L270.791 136.116 270.791 210.559 196.348 210.559z" transform="translate(23 23) rotate(-45 233.569 173.338)"/>
            <path d="M199.39 139.158L267.748 139.158 267.748 207.517 199.39 207.517z" transform="translate(23 23) rotate(-45 233.569 173.338)"/>
            <path d="M202.432 142.2L264.706 142.2 264.706 204.475 202.432 204.475z" transform="translate(23 23) rotate(-45 233.569 173.338)"/>
            <path d="M205.474 145.243L261.664 145.243 261.664 201.433 205.474 201.433z" transform="translate(23 23) rotate(-45 233.569 173.338)"/>
            <path d="M208.516 148.285L258.622 148.285 258.622 198.391 208.516 198.391z" transform="translate(23 23) rotate(-45 233.569 173.338)"/>
            <path d="M211.558 151.327L255.58 151.327 255.58 195.348 211.558 195.348z" transform="translate(23 23) rotate(-45 233.569 173.338)"/>
            <path d="M214.6 154.369L252.538 154.369 252.538 192.306 214.6 192.306z" transform="translate(23 23) rotate(-45 233.569 173.338)"/>
            <path d="M217.643 157.411L249.496 157.411 249.496 189.264 217.643 189.264z" transform="translate(23 23) rotate(-45 233.569 173.338)"/>
            <path d="M220.685 160.453L246.453 160.453 246.453 186.222 220.685 186.222z" transform="translate(23 23) rotate(-45 233.569 173.338)"/>
            <path d="M223.727 163.495L243.411 163.495 243.411 183.18 223.727 183.18z" transform="translate(23 23) rotate(-45 233.569 173.338)"/>
            <path d="M226.769 166.538L240.369 166.538 240.369 180.138 226.769 180.138z" transform="translate(23 23) rotate(-45 233.569 173.338)"/>
            <path d="M111.167 111.167L355.971 111.167 355.971 355.971 111.167 355.971z" transform="translate(23 23) rotate(-45 233.569 233.569)"/>
            <path d="M114.21 114.21L352.928 114.21 352.928 352.928 114.21 352.928z" transform="translate(23 23) rotate(-45 233.569 233.569)"/>
            <path d="M117.252 117.252L349.886 117.252 349.886 349.886 117.252 349.886z" transform="translate(23 23) rotate(-45 233.569 233.569)"/>
            <path d="M120.294 120.294L346.844 120.294 346.844 346.844 120.294 346.844z" transform="translate(23 23) rotate(-45 233.569 233.569)"/>
            <path d="M123.336 123.336L343.802 123.336 343.802 343.802 123.336 343.802z" transform="translate(23 23) rotate(-45 233.569 233.569)"/>
            <path d="M126.378 126.378L340.76 126.378 340.76 340.76 126.378 340.76z" transform="translate(23 23) rotate(-45 233.569 233.569)"/>
            <path d="M129.42 129.42L337.718 129.42 337.718 337.718 129.42 337.718z" transform="translate(23 23) rotate(-45 233.569 233.569)"/>
            <path d="M132.462 132.462L334.676 132.462 334.676 334.676 132.462 334.676z" transform="translate(23 23) rotate(-45 233.569 233.569)"/>
            <path d="M135.505 135.505L331.633 135.505 331.633 331.633 135.505 331.633z" transform="translate(23 23) rotate(-45 233.569 233.569)"/>
            <path d="M138.547 138.547L328.591 138.547 328.591 328.591 138.547 328.591z" transform="translate(23 23) rotate(-45 233.569 233.569)"/>
            <path d="M141.589 141.589L325.549 141.589 325.549 325.549 141.589 325.549z" transform="translate(23 23) rotate(-45 233.569 233.569)"/>
            <path d="M144.631 144.631L322.507 144.631 322.507 322.507 144.631 322.507z" transform="translate(23 23) rotate(-45 233.569 233.569)"/>
            <path d="M147.673 147.673L319.465 147.673 319.465 319.465 147.673 319.465z" transform="translate(23 23) rotate(-45 233.569 233.569)"/>
            <path d="M150.715 150.715L316.423 150.715 316.423 316.423 150.715 316.423z" transform="translate(23 23) rotate(-45 233.569 233.569)"/>
            <path d="M153.757 153.757L313.381 153.757 313.381 313.381 153.757 313.381z" transform="translate(23 23) rotate(-45 233.569 233.569)"/>
            <path d="M156.8 156.8L310.338 156.8 310.338 310.338 156.8 310.338z" transform="translate(23 23) rotate(-45 233.569 233.569)"/>
            <path d="M159.842 159.842L307.296 159.842 307.296 307.296 159.842 307.296z" transform="translate(23 23) rotate(-45 233.569 233.569)"/>
            <path d="M162.884 162.884L304.254 162.884 304.254 304.254 162.884 304.254z" transform="translate(23 23) rotate(-45 233.569 233.569)"/>
            <path d="M165.926 165.926L301.212 165.926 301.212 301.212 165.926 301.212z" transform="translate(23 23) rotate(-45 233.569 233.569)"/>
            <path d="M168.968 168.968L298.17 168.968 298.17 298.17 168.968 298.17z" transform="translate(23 23) rotate(-45 233.569 233.569)"/>
            <path d="M172.01 172.01L295.128 172.01 295.128 295.128 172.01 295.128z" transform="translate(23 23) rotate(-45 233.569 233.569)"/>
            <path d="M175.052 175.053L292.086 175.053 292.086 292.086 175.052 292.086z" transform="translate(23 23) rotate(-45 233.569 233.569)"/>
            <path d="M178.095 178.095L289.043 178.095 289.043 289.043 178.095 289.043z" transform="translate(23 23) rotate(-45 233.569 233.569)"/>
            <path d="M181.137 181.137L286.001 181.137 286.001 286.001 181.137 286.001z" transform="translate(23 23) rotate(-45 233.569 233.569)"/>
            <path d="M184.179 184.179L282.959 184.179 282.959 282.959 184.179 282.959z" transform="translate(23 23) rotate(-45 233.569 233.569)"/>
            <path d="M187.221 187.221L279.917 187.221 279.917 279.917 187.221 279.917z" transform="translate(23 23) rotate(-45 233.569 233.569)"/>
            <path d="M190.263 190.263L276.875 190.263 276.875 276.875 190.263 276.875z" transform="translate(23 23) rotate(-45 233.569 233.569)"/>
            <path d="M193.305 193.305L273.833 193.305 273.833 273.833 193.305 273.833z" transform="translate(23 23) rotate(-45 233.569 233.569)"/>
            <path d="M196.348 196.348L270.791 196.348 270.791 270.791 196.348 270.791z" transform="translate(23 23) rotate(-45 233.569 233.569)"/>
            <path d="M199.39 199.39L267.748 199.39 267.748 267.748 199.39 267.748z" transform="translate(23 23) rotate(-45 233.569 233.569)"/>
            <path d="M202.432 202.432L264.706 202.432 264.706 264.706 202.432 264.706z" transform="translate(23 23) rotate(-45 233.569 233.569)"/>
            <path d="M205.474 205.474L261.664 205.474 261.664 261.664 205.474 261.664z" transform="translate(23 23) rotate(-45 233.569 233.569)"/>
            <path d="M208.516 208.516L258.622 208.516 258.622 258.622 208.516 258.622z" transform="translate(23 23) rotate(-45 233.569 233.569)"/>
            <path d="M211.558 211.558L255.58 211.558 255.58 255.58 211.558 255.58z" transform="translate(23 23) rotate(-45 233.569 233.569)"/>
            <path d="M214.6 214.6L252.538 214.6 252.538 252.538 214.6 252.538z" transform="translate(23 23) rotate(-45 233.569 233.569)"/>
            <path d="M217.643 217.643L249.496 217.643 249.496 249.496 217.643 249.496z" transform="translate(23 23) rotate(-45 233.569 233.569)"/>
            <path d="M220.685 220.685L246.453 220.685 246.453 246.453 220.685 246.453z" transform="translate(23 23) rotate(-45 233.569 233.569)"/>
            <path d="M223.727 223.727L243.411 223.727 243.411 243.411 223.727 243.411z" transform="translate(23 23) rotate(-45 233.569 233.569)"/>
            <path d="M226.769 226.769L240.369 226.769 240.369 240.369 226.769 240.369z" transform="translate(23 23) rotate(-45 233.569 233.569)"/>
        </g>
        <g style="mix-blend-mode:lighten" stroke="#FFF" stroke-width=".35">
            <path d="M58.766 170.734L171.317 58.182M167.018 58.182L58.766 166.434M58.766 162.135L162.718 58.182M58.766 157.835L158.419 58.182M58.766 153.535L154.119 58.182M58.766 149.236L149.819 58.182M58.766 144.936L145.52 58.182M58.766 140.636L141.22 58.182M58.766 136.337L136.92 58.182M58.766 132.037L132.621 58.182M58.766 127.738L128.321 58.182M58.766 123.438L124.021 58.182M58.766 119.138L119.722 58.182M58.766 114.839L115.422 58.182M58.766 110.539L111.123 58.182M58.766 106.239L106.823 58.182M58.956 102.13L102.523 58.182M58.766 97.64L98.224 58.182M58.766 93.341L93.924 58.182M58.766 89.041L89.624 58.182M58.766 84.741L85.289 58.218M58.766 80.442L81.025 58.182M58.766 76.142L76.725 58.182M58.766 71.842L72.426 58.182M58.766 67.543L68.126 58.182M58.766 63.243L63.827 58.182M58.766 58.943L59.527 58.182M295.612 57.971L408.163 170.522M408.163 166.222L299.911 57.971M304.211 57.971L408.163 161.923M308.51 57.971L408.163 157.623M312.81 57.971L408.163 153.324M317.11 57.971L408.163 149.024M321.409 57.971L408.163 144.724M325.709 57.971L408.163 140.425M330.009 57.971L408.163 136.125M334.308 57.971L408.163 131.825M338.608 57.971L408.163 127.526M342.908 57.971L408.163 123.226M347.207 57.971L408.163 118.927M351.507 57.971L408.163 114.627M355.807 57.971L408.163 110.327M360.106 57.971L408.163 106.028M364.216 58.161L408.163 101.728M368.705 57.971L408.163 97.428M373.005 57.971L408.163 93.129M377.305 57.971L408.163 88.829M381.604 57.971L408.127 84.494M385.904 57.971L408.163 80.23M390.204 57.971L408.163 75.93M394.503 57.971L408.163 71.631M398.803 57.971L408.163 67.331M403.103 57.971L408.163 63.031M407.402 57.971L408.163 58.732M408.283 296.485L295.732 409.036M300.031 409.036L408.283 300.784M408.283 305.084L304.331 409.036M408.283 309.384L308.631 409.036M408.283 313.683L312.93 409.036M408.283 317.983L317.23 409.036M408.283 322.283L321.53 409.036M408.283 326.582L325.829 409.036M408.283 330.882L330.129 409.036M408.283 335.181L334.428 409.036M408.283 339.481L338.728 409.036M408.283 343.781L343.028 409.036M408.283 348.08L347.327 409.036M408.283 352.38L351.627 409.036M408.283 356.68L355.927 409.036M408.283 360.979L360.226 409.036M408.093 365.089L364.526 409.036M408.283 369.578L368.825 409.036M408.283 373.878L373.125 409.036M408.283 378.178L377.425 409.036M408.283 382.477L381.76 409M408.283 386.777L386.024 409.036M408.283 391.077L390.324 409.036M408.283 395.376L394.623 409.036M408.283 399.676L398.923 409.036M408.283 403.976L403.223 409.036M408.283 408.275L407.522 409.036M171.313 408.96L58.762 296.409M58.762 300.708L167.013 408.96M162.714 408.96L58.762 305.008M158.414 408.96L58.762 309.307M154.115 408.96L58.762 313.607M149.815 408.96L58.762 317.907M145.515 408.96L58.762 322.206M141.216 408.96L58.762 326.506M136.916 408.96L58.762 330.806M132.616 408.96L58.762 335.105M128.317 408.96L58.762 339.405M124.017 408.96L58.762 343.704M119.718 408.96L58.762 348.004M115.418 408.96L58.762 352.304M111.118 408.96L58.762 356.603M106.819 408.96L58.762 360.903M102.709 408.77L58.762 365.203M98.219 408.96L58.762 369.502M93.92 408.96L58.762 373.802M89.62 408.96L58.762 378.102M85.32 408.96L58.798 382.437M81.021 408.96L58.762 386.701M76.721 408.96L58.762 391M72.422 408.96L58.762 395.3M68.122 408.96L58.762 399.6M63.822 408.96L58.762 403.899M59.523 408.96L58.762 408.199" transform="translate(23 23)"/>
            <path d="M171.399 111.167L416.202 111.167 416.202 355.971 171.399 355.971z" transform="translate(23 23) rotate(-45 293.8 233.569)"/>
            <path d="M174.441 114.21L413.16 114.21 413.16 352.928 174.441 352.928z" transform="translate(23 23) rotate(-45 293.8 233.569)"/>
            <path d="M177.483 117.252L410.118 117.252 410.118 349.886 177.483 349.886z" transform="translate(23 23) rotate(-45 293.8 233.569)"/>
            <path d="M180.525 120.294L407.076 120.294 407.076 346.844 180.525 346.844z" transform="translate(23 23) rotate(-45 293.8 233.569)"/>
            <path d="M183.567 123.336L404.033 123.336 404.033 343.802 183.567 343.802z" transform="translate(23 23) rotate(-45 293.8 233.569)"/>
            <path d="M186.61 126.378L400.991 126.378 400.991 340.76 186.61 340.76z" transform="translate(23 23) rotate(-45 293.8 233.569)"/>
            <path d="M189.652 129.42L397.949 129.42 397.949 337.718 189.652 337.718z" transform="translate(23 23) rotate(-45 293.8 233.569)"/>
            <path d="M192.694 132.462L394.907 132.462 394.907 334.676 192.694 334.676z" transform="translate(23 23) rotate(-45 293.8 233.569)"/>
            <path d="M195.736 135.505L391.865 135.505 391.865 331.633 195.736 331.633z" transform="translate(23 23) rotate(-45 293.8 233.569)"/>
            <path d="M198.778 138.547L388.823 138.547 388.823 328.591 198.778 328.591z" transform="translate(23 23) rotate(-45 293.8 233.569)"/>
            <path d="M201.82 141.589L385.781 141.589 385.781 325.549 201.82 325.549z" transform="translate(23 23) rotate(-45 293.8 233.569)"/>
            <path d="M204.862 144.631L382.738 144.631 382.738 322.507 204.862 322.507z" transform="translate(23 23) rotate(-45 293.8 233.569)"/>
            <path d="M207.905 147.673L379.696 147.673 379.696 319.465 207.905 319.465z" transform="translate(23 23) rotate(-45 293.8 233.569)"/>
            <path d="M210.947 150.715L376.654 150.715 376.654 316.423 210.947 316.423z" transform="translate(23 23) rotate(-45 293.8 233.569)"/>
            <path d="M213.989 153.757L373.612 153.757 373.612 313.381 213.989 313.381z" transform="translate(23 23) rotate(-45 293.8 233.569)"/>
            <path d="M217.031 156.8L370.57 156.8 370.57 310.338 217.031 310.338z" transform="translate(23 23) rotate(-45 293.8 233.569)"/>
            <path d="M220.073 159.842L367.528 159.842 367.528 307.296 220.073 307.296z" transform="translate(23 23) rotate(-45 293.8 233.569)"/>
            <path d="M223.115 162.884L364.486 162.884 364.486 304.254 223.115 304.254z" transform="translate(23 23) rotate(-45 293.8 233.569)"/>
            <path d="M226.157 165.926L361.443 165.926 361.443 301.212 226.157 301.212z" transform="translate(23 23) rotate(-45 293.8 233.569)"/>
            <path d="M229.2 168.968L358.401 168.968 358.401 298.17 229.2 298.17z" transform="translate(23 23) rotate(-45 293.8 233.569)"/>
            <path d="M232.242 172.01L355.359 172.01 355.359 295.128 232.242 295.128z" transform="translate(23 23) rotate(-45 293.8 233.569)"/>
            <path d="M235.284 175.052L352.317 175.052 352.317 292.086 235.284 292.086z" transform="translate(23 23) rotate(-45 293.8 233.569)"/>
            <path d="M238.326 178.095L349.275 178.095 349.275 289.043 238.326 289.043z" transform="translate(23 23) rotate(-45 293.8 233.569)"/>
            <path d="M241.368 181.137L346.233 181.137 346.233 286.001 241.368 286.001z" transform="translate(23 23) rotate(-45 293.8 233.569)"/>
            <path d="M244.41 184.179L343.191 184.179 343.191 282.959 244.41 282.959z" transform="translate(23 23) rotate(-45 293.8 233.569)"/>
            <path d="M247.452 187.221L340.148 187.221 340.148 279.917 247.452 279.917z" transform="translate(23 23) rotate(-45 293.8 233.569)"/>
            <path d="M250.495 190.263L337.106 190.263 337.106 276.875 250.495 276.875z" transform="translate(23 23) rotate(-45 293.8 233.569)"/>
            <path d="M253.537 193.305L334.064 193.305 334.064 273.833 253.537 273.833z" transform="translate(23 23) rotate(-45 293.8 233.569)"/>
            <path d="M256.579 196.348L331.022 196.348 331.022 270.791 256.579 270.791z" transform="translate(23 23) rotate(-45 293.8 233.569)"/>
            <path d="M259.621 199.39L327.98 199.39 327.98 267.748 259.621 267.748z" transform="translate(23 23) rotate(-45 293.8 233.569)"/>
            <path d="M262.663 202.432L324.938 202.432 324.938 264.706 262.663 264.706z" transform="translate(23 23) rotate(-45 293.8 233.569)"/>
            <path d="M265.705 205.474L321.896 205.474 321.896 261.664 265.705 261.664z" transform="translate(23 23) rotate(-45 293.8 233.569)"/>
            <path d="M268.747 208.516L318.853 208.516 318.853 258.622 268.747 258.622z" transform="translate(23 23) rotate(-45 293.8 233.569)"/>
            <path d="M271.79 211.558L315.811 211.558 315.811 255.58 271.79 255.58z" transform="translate(23 23) rotate(-45 293.8 233.569)"/>
            <path d="M274.832 214.6L312.769 214.6 312.769 252.538 274.832 252.538z" transform="translate(23 23) rotate(-45 293.8 233.569)"/>
            <path d="M277.874 217.643L309.727 217.643 309.727 249.496 277.874 249.496z" transform="translate(23 23) rotate(-45 293.8 233.569)"/>
            <path d="M280.916 220.685L306.685 220.685 306.685 246.453 280.916 246.453z" transform="translate(23 23) rotate(-45 293.8 233.569)"/>
            <path d="M283.958 223.727L303.643 223.727 303.643 243.411 283.958 243.411z" transform="translate(23 23) rotate(-45 293.8 233.569)"/>
            <path d="M287 226.769L300.601 226.769 300.601 240.369 287 240.369z" transform="translate(23 23) rotate(-45 293.8 233.569)"/>
            <path d="M50.936 111.167L295.739 111.167 295.739 355.971 50.936 355.971z" transform="translate(23 23) rotate(-45 173.338 233.569)"/>
            <path d="M53.978 114.21L292.697 114.21 292.697 352.928 53.978 352.928z" transform="translate(23 23) rotate(-45 173.338 233.569)"/>
            <path d="M57.02 117.252L289.655 117.252 289.655 349.886 57.02 349.886z" transform="translate(23 23) rotate(-45 173.338 233.569)"/>
            <path d="M60.063 120.294L286.613 120.294 286.613 346.844 60.063 346.844z" transform="translate(23 23) rotate(-45 173.338 233.569)"/>
            <path d="M63.105 123.336L283.571 123.336 283.571 343.802 63.105 343.802z" transform="translate(23 23) rotate(-45 173.338 233.569)"/>
            <path d="M66.147 126.378L280.529 126.378 280.529 340.76 66.147 340.76z" transform="translate(23 23) rotate(-45 173.338 233.569)"/>
            <path d="M69.189 129.42L277.486 129.42 277.486 337.718 69.189 337.718z" transform="translate(23 23) rotate(-45 173.338 233.569)"/>
            <path d="M72.231 132.462L274.444 132.462 274.444 334.676 72.231 334.676z" transform="translate(23 23) rotate(-45 173.338 233.569)"/>
            <path d="M75.273 135.505L271.402 135.505 271.402 331.633 75.273 331.633z" transform="translate(23 23) rotate(-45 173.338 233.569)"/>
            <path d="M78.315 138.547L268.36 138.547 268.36 328.591 78.315 328.591z" transform="translate(23 23) rotate(-45 173.338 233.569)"/>
            <path d="M81.358 141.589L265.318 141.589 265.318 325.549 81.358 325.549z" transform="translate(23 23) rotate(-45 173.338 233.569)"/>
            <path d="M84.4 144.631L262.276 144.631 262.276 322.507 84.4 322.507z" transform="translate(23 23) rotate(-45 173.338 233.569)"/>
            <path d="M87.442 147.673L259.233 147.673 259.233 319.465 87.442 319.465z" transform="translate(23 23) rotate(-45 173.338 233.569)"/>
            <path d="M90.484 150.715L256.191 150.715 256.191 316.423 90.484 316.423z" transform="translate(23 23) rotate(-45 173.338 233.569)"/>
            <path d="M93.526 153.757L253.149 153.757 253.149 313.381 93.526 313.381z" transform="translate(23 23) rotate(-45 173.338 233.569)"/>
            <path d="M96.568 156.8L250.107 156.8 250.107 310.338 96.568 310.338z" transform="translate(23 23) rotate(-45 173.338 233.569)"/>
            <path d="M99.61 159.842L247.065 159.842 247.065 307.296 99.61 307.296z" transform="translate(23 23) rotate(-45 173.338 233.569)"/>
            <path d="M102.653 162.884L244.023 162.884 244.023 304.254 102.653 304.254z" transform="translate(23 23) rotate(-45 173.338 233.569)"/>
            <path d="M105.695 165.926L240.981 165.926 240.981 301.212 105.695 301.212z" transform="translate(23 23) rotate(-45 173.338 233.569)"/>
            <path d="M108.737 168.968L237.938 168.968 237.938 298.17 108.737 298.17z" transform="translate(23 23) rotate(-45 173.338 233.569)"/>
            <path d="M111.779 172.01L234.896 172.01 234.896 295.128 111.779 295.128z" transform="translate(23 23) rotate(-45 173.338 233.569)"/>
            <path d="M114.821 175.052L231.854 175.052 231.854 292.086 114.821 292.086z" transform="translate(23 23) rotate(-45 173.338 233.569)"/>
            <path d="M117.863 178.095L228.812 178.095 228.812 289.043 117.863 289.043z" transform="translate(23 23) rotate(-45 173.338 233.569)"/>
            <path d="M120.905 181.137L225.77 181.137 225.77 286.001 120.905 286.001z" transform="translate(23 23) rotate(-45 173.338 233.569)"/>
            <path d="M123.948 184.179L222.728 184.179 222.728 282.959 123.948 282.959z" transform="translate(23 23) rotate(-45 173.338 233.569)"/>
            <path d="M126.99 187.221L219.686 187.221 219.686 279.917 126.99 279.917z" transform="translate(23 23) rotate(-45 173.338 233.569)"/>
            <path d="M130.032 190.263L216.643 190.263 216.643 276.875 130.032 276.875z" transform="translate(23 23) rotate(-45 173.338 233.569)"/>
            <path d="M133.074 193.305L213.601 193.305 213.601 273.833 133.074 273.833z" transform="translate(23 23) rotate(-45 173.338 233.569)"/>
            <path d="M136.116 196.348L210.559 196.348 210.559 270.791 136.116 270.791z" transform="translate(23 23) rotate(-45 173.338 233.569)"/>
            <path d="M139.158 199.39L207.517 199.39 207.517 267.748 139.158 267.748z" transform="translate(23 23) rotate(-45 173.338 233.569)"/>
            <path d="M142.2 202.432L204.475 202.432 204.475 264.706 142.2 264.706z" transform="translate(23 23) rotate(-45 173.338 233.569)"/>
            <path d="M145.243 205.474L201.433 205.474 201.433 261.664 145.243 261.664z" transform="translate(23 23) rotate(-45 173.338 233.569)"/>
            <path d="M148.285 208.516L198.391 208.516 198.391 258.622 148.285 258.622z" transform="translate(23 23) rotate(-45 173.338 233.569)"/>
            <path d="M151.327 211.558L195.348 211.558 195.348 255.58 151.327 255.58z" transform="translate(23 23) rotate(-45 173.338 233.569)"/>
            <path d="M154.369 214.6L192.306 214.6 192.306 252.538 154.369 252.538z" transform="translate(23 23) rotate(-45 173.338 233.569)"/>
            <path d="M157.411 217.643L189.264 217.643 189.264 249.496 157.411 249.496z" transform="translate(23 23) rotate(-45 173.338 233.569)"/>
            <path d="M160.453 220.685L186.222 220.685 186.222 246.453 160.453 246.453z" transform="translate(23 23) rotate(-45 173.338 233.569)"/>
            <path d="M163.495 223.727L183.18 223.727 183.18 243.411 163.495 243.411z" transform="translate(23 23) rotate(-45 173.338 233.569)"/>
            <path d="M166.538 226.769L180.138 226.769 180.138 240.369 166.538 240.369z" transform="translate(23 23) rotate(-45 173.338 233.569)"/>
            <path d="M111.167 171.399L355.971 171.399 355.971 416.202 111.167 416.202z" transform="translate(23 23) rotate(-45 233.569 293.8)"/>
            <path d="M114.21 174.441L352.928 174.441 352.928 413.16 114.21 413.16z" transform="translate(23 23) rotate(-45 233.569 293.8)"/>
            <path d="M117.252 177.483L349.886 177.483 349.886 410.118 117.252 410.118z" transform="translate(23 23) rotate(-45 233.569 293.8)"/>
            <path d="M120.294 180.525L346.844 180.525 346.844 407.076 120.294 407.076z" transform="translate(23 23) rotate(-45 233.569 293.8)"/>
            <path d="M123.336 183.567L343.802 183.567 343.802 404.033 123.336 404.033z" transform="translate(23 23) rotate(-45 233.569 293.8)"/>
            <path d="M126.378 186.61L340.76 186.61 340.76 400.991 126.378 400.991z" transform="translate(23 23) rotate(-45 233.569 293.8)"/>
            <path d="M129.42 189.652L337.718 189.652 337.718 397.949 129.42 397.949z" transform="translate(23 23) rotate(-45 233.569 293.8)"/>
            <path d="M132.462 192.694L334.676 192.694 334.676 394.907 132.462 394.907z" transform="translate(23 23) rotate(-45 233.569 293.8)"/>
            <path d="M135.505 195.736L331.633 195.736 331.633 391.865 135.505 391.865z" transform="translate(23 23) rotate(-45 233.569 293.8)"/>
            <path d="M138.547 198.778L328.591 198.778 328.591 388.823 138.547 388.823z" transform="translate(23 23) rotate(-45 233.569 293.8)"/>
            <path d="M141.589 201.82L325.549 201.82 325.549 385.781 141.589 385.781z" transform="translate(23 23) rotate(-45 233.569 293.8)"/>
            <path d="M144.631 204.862L322.507 204.862 322.507 382.738 144.631 382.738z" transform="translate(23 23) rotate(-45 233.569 293.8)"/>
            <path d="M147.673 207.905L319.465 207.905 319.465 379.696 147.673 379.696z" transform="translate(23 23) rotate(-45 233.569 293.8)"/>
            <path d="M150.715 210.947L316.423 210.947 316.423 376.654 150.715 376.654z" transform="translate(23 23) rotate(-45 233.569 293.8)"/>
            <path d="M153.757 213.989L313.381 213.989 313.381 373.612 153.757 373.612z" transform="translate(23 23) rotate(-45 233.569 293.8)"/>
            <path d="M156.8 217.031L310.338 217.031 310.338 370.57 156.8 370.57z" transform="translate(23 23) rotate(-45 233.569 293.8)"/>
            <path d="M159.842 220.073L307.296 220.073 307.296 367.528 159.842 367.528z" transform="translate(23 23) rotate(-45 233.569 293.8)"/>
            <path d="M162.884 223.115L304.254 223.115 304.254 364.486 162.884 364.486z" transform="translate(23 23) rotate(-45 233.569 293.8)"/>
            <path d="M165.926 226.157L301.212 226.157 301.212 361.443 165.926 361.443z" transform="translate(23 23) rotate(-45 233.569 293.8)"/>
            <path d="M168.968 229.2L298.17 229.2 298.17 358.401 168.968 358.401z" transform="translate(23 23) rotate(-45 233.569 293.8)"/>
            <path d="M172.01 232.242L295.128 232.242 295.128 355.359 172.01 355.359z" transform="translate(23 23) rotate(-45 233.569 293.8)"/>
            <path d="M175.052 235.284L292.086 235.284 292.086 352.317 175.052 352.317z" transform="translate(23 23) rotate(-45 233.569 293.8)"/>
            <path d="M178.095 238.326L289.043 238.326 289.043 349.275 178.095 349.275z" transform="translate(23 23) rotate(-45 233.569 293.8)"/>
            <path d="M181.137 241.368L286.001 241.368 286.001 346.233 181.137 346.233z" transform="translate(23 23) rotate(-45 233.569 293.8)"/>
            <path d="M184.179 244.41L282.959 244.41 282.959 343.191 184.179 343.191z" transform="translate(23 23) rotate(-45 233.569 293.8)"/>
            <path d="M187.221 247.452L279.917 247.452 279.917 340.148 187.221 340.148z" transform="translate(23 23) rotate(-45 233.569 293.8)"/>
            <path d="M190.263 250.495L276.875 250.495 276.875 337.106 190.263 337.106z" transform="translate(23 23) rotate(-45 233.569 293.8)"/>
            <path d="M193.305 253.537L273.833 253.537 273.833 334.064 193.305 334.064z" transform="translate(23 23) rotate(-45 233.569 293.8)"/>
            <path d="M196.348 256.579L270.791 256.579 270.791 331.022 196.348 331.022z" transform="translate(23 23) rotate(-45 233.569 293.8)"/>
            <path d="M199.39 259.621L267.748 259.621 267.748 327.98 199.39 327.98z" transform="translate(23 23) rotate(-45 233.569 293.8)"/>
            <path d="M202.432 262.663L264.706 262.663 264.706 324.938 202.432 324.938z" transform="translate(23 23) rotate(-45 233.569 293.8)"/>
            <path d="M205.474 265.705L261.664 265.705 261.664 321.896 205.474 321.896z" transform="translate(23 23) rotate(-45 233.569 293.8)"/>
            <path d="M208.516 268.747L258.622 268.747 258.622 318.853 208.516 318.853z" transform="translate(23 23) rotate(-45 233.569 293.8)"/>
            <path d="M211.558 271.79L255.58 271.79 255.58 315.811 211.558 315.811z" transform="translate(23 23) rotate(-45 233.569 293.8)"/>
            <path d="M214.6 274.832L252.538 274.832 252.538 312.769 214.6 312.769z" transform="translate(23 23) rotate(-45 233.569 293.8)"/>
            <path d="M217.643 277.874L249.496 277.874 249.496 309.727 217.643 309.727z" transform="translate(23 23) rotate(-45 233.569 293.8)"/>
            <path d="M220.685 280.916L246.453 280.916 246.453 306.685 220.685 306.685z" transform="translate(23 23) rotate(-45 233.569 293.8)"/>
            <path d="M223.727 283.958L243.411 283.958 243.411 303.643 223.727 303.643z" transform="translate(23 23) rotate(-45 233.569 293.8)"/>
            <path d="M226.769 287L240.369 287 240.369 300.601 226.769 300.601z" transform="translate(23 23) rotate(-45 233.569 293.8)"/>
            <path d="M111.167 50.936L355.971 50.936 355.971 295.739 111.167 295.739z" transform="translate(23 23) rotate(-45 233.569 173.338)"/>
            <path d="M114.21 53.978L352.928 53.978 352.928 292.697 114.21 292.697z" transform="translate(23 23) rotate(-45 233.569 173.338)"/>
            <path d="M117.252 57.02L349.886 57.02 349.886 289.655 117.252 289.655z" transform="translate(23 23) rotate(-45 233.569 173.338)"/>
            <path d="M120.294 60.063L346.844 60.063 346.844 286.613 120.294 286.613z" transform="translate(23 23) rotate(-45 233.569 173.338)"/>
            <path d="M123.336 63.105L343.802 63.105 343.802 283.571 123.336 283.571z" transform="translate(23 23) rotate(-45 233.569 173.338)"/>
            <path d="M126.378 66.147L340.76 66.147 340.76 280.529 126.378 280.529z" transform="translate(23 23) rotate(-45 233.569 173.338)"/>
            <path d="M129.42 69.189L337.718 69.189 337.718 277.486 129.42 277.486z" transform="translate(23 23) rotate(-45 233.569 173.338)"/>
            <path d="M132.462 72.231L334.676 72.231 334.676 274.444 132.462 274.444z" transform="translate(23 23) rotate(-45 233.569 173.338)"/>
            <path d="M135.505 75.273L331.633 75.273 331.633 271.402 135.505 271.402z" transform="translate(23 23) rotate(-45 233.569 173.338)"/>
            <path d="M138.547 78.315L328.591 78.315 328.591 268.36 138.547 268.36z" transform="translate(23 23) rotate(-45 233.569 173.338)"/>
            <path d="M141.589 81.358L325.549 81.358 325.549 265.318 141.589 265.318z" transform="translate(23 23) rotate(-45 233.569 173.338)"/>
            <path d="M144.631 84.4L322.507 84.4 322.507 262.276 144.631 262.276z" transform="translate(23 23) rotate(-45 233.569 173.338)"/>
            <path d="M147.673 87.442L319.465 87.442 319.465 259.233 147.673 259.233z" transform="translate(23 23) rotate(-45 233.569 173.338)"/>
            <path d="M150.715 90.484L316.423 90.484 316.423 256.191 150.715 256.191z" transform="translate(23 23) rotate(-45 233.569 173.338)"/>
            <path d="M153.757 93.526L313.381 93.526 313.381 253.149 153.757 253.149z" transform="translate(23 23) rotate(-45 233.569 173.338)"/>
            <path d="M156.8 96.568L310.338 96.568 310.338 250.107 156.8 250.107z" transform="translate(23 23) rotate(-45 233.569 173.338)"/>
            <path d="M159.842 99.61L307.296 99.61 307.296 247.065 159.842 247.065z" transform="translate(23 23) rotate(-45 233.569 173.338)"/>
            <path d="M162.884 102.653L304.254 102.653 304.254 244.023 162.884 244.023z" transform="translate(23 23) rotate(-45 233.569 173.338)"/>
            <path d="M165.926 105.695L301.212 105.695 301.212 240.981 165.926 240.981z" transform="translate(23 23) rotate(-45 233.569 173.338)"/>
            <path d="M168.968 108.737L298.17 108.737 298.17 237.938 168.968 237.938z" transform="translate(23 23) rotate(-45 233.569 173.338)"/>
            <path d="M172.01 111.779L295.128 111.779 295.128 234.896 172.01 234.896z" transform="translate(23 23) rotate(-45 233.569 173.338)"/>
            <path d="M175.053 114.821L292.086 114.821 292.086 231.854 175.053 231.854z" transform="translate(23 23) rotate(-45 233.569 173.338)"/>
            <path d="M178.095 117.863L289.043 117.863 289.043 228.812 178.095 228.812z" transform="translate(23 23) rotate(-45 233.569 173.338)"/>
            <path d="M181.137 120.905L286.001 120.905 286.001 225.77 181.137 225.77z" transform="translate(23 23) rotate(-45 233.569 173.338)"/>
            <path d="M184.179 123.948L282.959 123.948 282.959 222.728 184.179 222.728z" transform="translate(23 23) rotate(-45 233.569 173.338)"/>
            <path d="M187.221 126.99L279.917 126.99 279.917 219.686 187.221 219.686z" transform="translate(23 23) rotate(-45 233.569 173.338)"/>
            <path d="M190.263 130.032L276.875 130.032 276.875 216.643 190.263 216.643z" transform="translate(23 23) rotate(-45 233.569 173.338)"/>
            <path d="M193.305 133.074L273.833 133.074 273.833 213.601 193.305 213.601z" transform="translate(23 23) rotate(-45 233.569 173.338)"/>
            <path d="M196.348 136.116L270.791 136.116 270.791 210.559 196.348 210.559z" transform="translate(23 23) rotate(-45 233.569 173.338)"/>
            <path d="M199.39 139.158L267.748 139.158 267.748 207.517 199.39 207.517z" transform="translate(23 23) rotate(-45 233.569 173.338)"/>
            <path d="M202.432 142.2L264.706 142.2 264.706 204.475 202.432 204.475z" transform="translate(23 23) rotate(-45 233.569 173.338)"/>
            <path d="M205.474 145.243L261.664 145.243 261.664 201.433 205.474 201.433z" transform="translate(23 23) rotate(-45 233.569 173.338)"/>
            <path d="M208.516 148.285L258.622 148.285 258.622 198.391 208.516 198.391z" transform="translate(23 23) rotate(-45 233.569 173.338)"/>
            <path d="M211.558 151.327L255.58 151.327 255.58 195.348 211.558 195.348z" transform="translate(23 23) rotate(-45 233.569 173.338)"/>
            <path d="M214.6 154.369L252.538 154.369 252.538 192.306 214.6 192.306z" transform="translate(23 23) rotate(-45 233.569 173.338)"/>
            <path d="M217.643 157.411L249.496 157.411 249.496 189.264 217.643 189.264z" transform="translate(23 23) rotate(-45 233.569 173.338)"/>
            <path d="M220.685 160.453L246.453 160.453 246.453 186.222 220.685 186.222z" transform="translate(23 23) rotate(-45 233.569 173.338)"/>
            <path d="M223.727 163.495L243.411 163.495 243.411 183.18 223.727 183.18z" transform="translate(23 23) rotate(-45 233.569 173.338)"/>
            <path d="M226.769 166.538L240.369 166.538 240.369 180.138 226.769 180.138z" transform="translate(23 23) rotate(-45 233.569 173.338)"/>
            <path d="M111.167 111.167L355.971 111.167 355.971 355.971 111.167 355.971z" transform="translate(23 23) rotate(-45 233.569 233.569)"/>
            <path d="M114.21 114.21L352.928 114.21 352.928 352.928 114.21 352.928z" transform="translate(23 23) rotate(-45 233.569 233.569)"/>
            <path d="M117.252 117.252L349.886 117.252 349.886 349.886 117.252 349.886z" transform="translate(23 23) rotate(-45 233.569 233.569)"/>
            <path d="M120.294 120.294L346.844 120.294 346.844 346.844 120.294 346.844z" transform="translate(23 23) rotate(-45 233.569 233.569)"/>
            <path d="M123.336 123.336L343.802 123.336 343.802 343.802 123.336 343.802z" transform="translate(23 23) rotate(-45 233.569 233.569)"/>
            <path d="M126.378 126.378L340.76 126.378 340.76 340.76 126.378 340.76z" transform="translate(23 23) rotate(-45 233.569 233.569)"/>
            <path d="M129.42 129.42L337.718 129.42 337.718 337.718 129.42 337.718z" transform="translate(23 23) rotate(-45 233.569 233.569)"/>
            <path d="M132.462 132.462L334.676 132.462 334.676 334.676 132.462 334.676z" transform="translate(23 23) rotate(-45 233.569 233.569)"/>
            <path d="M135.505 135.505L331.633 135.505 331.633 331.633 135.505 331.633z" transform="translate(23 23) rotate(-45 233.569 233.569)"/>
            <path d="M138.547 138.547L328.591 138.547 328.591 328.591 138.547 328.591z" transform="translate(23 23) rotate(-45 233.569 233.569)"/>
            <path d="M141.589 141.589L325.549 141.589 325.549 325.549 141.589 325.549z" transform="translate(23 23) rotate(-45 233.569 233.569)"/>
            <path d="M144.631 144.631L322.507 144.631 322.507 322.507 144.631 322.507z" transform="translate(23 23) rotate(-45 233.569 233.569)"/>
            <path d="M147.673 147.673L319.465 147.673 319.465 319.465 147.673 319.465z" transform="translate(23 23) rotate(-45 233.569 233.569)"/>
            <path d="M150.715 150.715L316.423 150.715 316.423 316.423 150.715 316.423z" transform="translate(23 23) rotate(-45 233.569 233.569)"/>
            <path d="M153.757 153.757L313.381 153.757 313.381 313.381 153.757 313.381z" transform="translate(23 23) rotate(-45 233.569 233.569)"/>
            <path d="M156.8 156.8L310.338 156.8 310.338 310.338 156.8 310.338z" transform="translate(23 23) rotate(-45 233.569 233.569)"/>
            <path d="M159.842 159.842L307.296 159.842 307.296 307.296 159.842 307.296z" transform="translate(23 23) rotate(-45 233.569 233.569)"/>
            <path d="M162.884 162.884L304.254 162.884 304.254 304.254 162.884 304.254z" transform="translate(23 23) rotate(-45 233.569 233.569)"/>
            <path d="M165.926 165.926L301.212 165.926 301.212 301.212 165.926 301.212z" transform="translate(23 23) rotate(-45 233.569 233.569)"/>
            <path d="M168.968 168.968L298.17 168.968 298.17 298.17 168.968 298.17z" transform="translate(23 23) rotate(-45 233.569 233.569)"/>
            <path d="M172.01 172.01L295.128 172.01 295.128 295.128 172.01 295.128z" transform="translate(23 23) rotate(-45 233.569 233.569)"/>
            <path d="M175.052 175.053L292.086 175.053 292.086 292.086 175.052 292.086z" transform="translate(23 23) rotate(-45 233.569 233.569)"/>
            <path d="M178.095 178.095L289.043 178.095 289.043 289.043 178.095 289.043z" transform="translate(23 23) rotate(-45 233.569 233.569)"/>
            <path d="M181.137 181.137L286.001 181.137 286.001 286.001 181.137 286.001z" transform="translate(23 23) rotate(-45 233.569 233.569)"/>
            <path d="M184.179 184.179L282.959 184.179 282.959 282.959 184.179 282.959z" transform="translate(23 23) rotate(-45 233.569 233.569)"/>
            <path d="M187.221 187.221L279.917 187.221 279.917 279.917 187.221 279.917z" transform="translate(23 23) rotate(-45 233.569 233.569)"/>
            <path d="M190.263 190.263L276.875 190.263 276.875 276.875 190.263 276.875z" transform="translate(23 23) rotate(-45 233.569 233.569)"/>
            <path d="M193.305 193.305L273.833 193.305 273.833 273.833 193.305 273.833z" transform="translate(23 23) rotate(-45 233.569 233.569)"/>
            <path d="M196.348 196.348L270.791 196.348 270.791 270.791 196.348 270.791z" transform="translate(23 23) rotate(-45 233.569 233.569)"/>
            <path d="M199.39 199.39L267.748 199.39 267.748 267.748 199.39 267.748z" transform="translate(23 23) rotate(-45 233.569 233.569)"/>
            <path d="M202.432 202.432L264.706 202.432 264.706 264.706 202.432 264.706z" transform="translate(23 23) rotate(-45 233.569 233.569)"/>
            <path d="M205.474 205.474L261.664 205.474 261.664 261.664 205.474 261.664z" transform="translate(23 23) rotate(-45 233.569 233.569)"/>
            <path d="M208.516 208.516L258.622 208.516 258.622 258.622 208.516 258.622z" transform="translate(23 23) rotate(-45 233.569 233.569)"/>
            <path d="M211.558 211.558L255.58 211.558 255.58 255.58 211.558 255.58z" transform="translate(23 23) rotate(-45 233.569 233.569)"/>
            <path d="M214.6 214.6L252.538 214.6 252.538 252.538 214.6 252.538z" transform="translate(23 23) rotate(-45 233.569 233.569)"/>
            <path d="M217.643 217.643L249.496 217.643 249.496 249.496 217.643 249.496z" transform="translate(23 23) rotate(-45 233.569 233.569)"/>
            <path d="M220.685 220.685L246.453 220.685 246.453 246.453 220.685 246.453z" transform="translate(23 23) rotate(-45 233.569 233.569)"/>
            <path d="M223.727 223.727L243.411 223.727 243.411 243.411 223.727 243.411z" transform="translate(23 23) rotate(-45 233.569 233.569)"/>
            <path d="M226.769 226.769L240.369 226.769 240.369 240.369 226.769 240.369z" transform="translate(23 23) rotate(-45 233.569 233.569)"/>
        </g>
        <circle fill="url(#prefix__a)" style="mix-blend-mode:multiply" cx="258" cy="258" r="258"/>
        <g fill="#FFF" fill-rule="nonzero" opacity=".945">
            <path d="M3.45 66.925l1.394-3.857h6.804l1.395 3.857h3.544l-6.38-16.883h-3.78L0 66.925h3.45zm7.112-6.858H5.93l2.315-6.382 2.316 6.382zm16.731 6.858c4.773 0 8.294-3.095 8.294-8.43 0-5.333-3.497-8.453-8.27-8.453h-6.001v16.883h5.977zm-.118-3.048h-2.599V53.09H27.2c2.74 0 5.009 1.739 5.009 5.406s-2.292 5.381-5.033 5.381zm21.15 3.048l6.215-16.883h-3.45l-4.371 12.55-4.371-12.55H38.78l6.19 16.883h3.356zm11.345 0l1.394-3.857h6.805l1.394 3.857h3.544l-6.38-16.883h-3.78l-6.426 16.883h3.45zm7.112-6.858h-4.63l2.315-6.382 2.315 6.382zm14.015 6.858V54.948l7.608 11.977h3.426V50.042h-3.26V61.21L81.6 50.042h-4.065v16.883h3.26zm25.072.358c4.702 0 7.112-3.144 7.75-5.74l-3.048-.928c-.449 1.572-1.843 3.453-4.702 3.453-2.693 0-5.198-1.977-5.198-5.572 0-3.834 2.646-5.644 5.151-5.644 2.906 0 4.206 1.786 4.607 3.405l3.072-.976c-.662-2.739-3.048-5.596-7.679-5.596-4.49 0-8.53 3.429-8.53 8.81 0 5.382 3.899 8.788 8.577 8.788zm23.3-.358V63.83h-7.23v-3.906h6.545v-2.929h-6.545v-3.857h7.23v-3.096h-10.49v16.883h10.49zm11.7 0c4.772 0 8.293-3.095 8.293-8.43 0-5.333-3.497-8.453-8.27-8.453h-6.001v16.883h5.978zm-.118-3.048h-2.6V53.09h2.623c2.741 0 5.01 1.739 5.01 5.406s-2.293 5.381-5.033 5.381zM22.983 101.463v-1.858h-6.75v-4.43h6.122v-1.877h-6.122v-4.45h6.75v-1.857h-8.737v14.472h8.737zm7.542 0V95.38h6.122v-1.878h-6.122v-4.654h6.75v-1.857h-8.737v14.472h1.987zm23.557.306c3.061 0 4.967-2.041 4.967-4.287 0-2.02-1.338-3.53-3.73-4.061l-2.15-.47c-1.216-.265-1.844-1.061-1.844-2.102 0-1.347 1.155-2.409 2.777-2.409 2.007 0 2.879 1.429 3.041 2.47l1.784-.633c-.324-1.571-1.622-3.592-4.865-3.592-2.656 0-4.744 2.041-4.744 4.307 0 2.163 1.46 3.51 3.507 3.96l2.048.448c1.439.307 2.148 1.205 2.148 2.246 0 1.265-.973 2.306-2.96 2.306-2.169 0-3.304-1.49-3.446-3.102l-1.905.612c.263 2.061 1.905 4.307 5.372 4.307zm19.137-.306v-1.858h-6.75v-4.43h6.122v-1.877h-6.122v-4.45h6.75v-1.857h-8.737v14.472h8.737zm10.786 0V88.848h4.804v-1.857H77.213v1.857h4.805v12.615h1.987zm20.414 0V86.99h-1.743c-.304 1.429-1.561 2.45-3.386 2.49v1.409h3.183v10.573h1.946zm10.745.265c4.44 0 5.555-4.103 5.555-7.491 0-3.429-1.156-7.511-5.555-7.511-4.4 0-5.555 4.082-5.555 7.511 0 3.368 1.135 7.49 5.555 7.49zm0-1.776c-2.818 0-3.568-2.817-3.568-5.715 0-2.919.73-5.715 3.568-5.715 2.818 0 3.588 2.817 3.588 5.715 0 2.898-.77 5.715-3.588 5.715zm15.873 1.776c4.44 0 5.555-4.103 5.555-7.491 0-3.429-1.155-7.511-5.555-7.511-4.399 0-5.554 4.082-5.554 7.511 0 3.368 1.135 7.49 5.554 7.49zm0-1.776c-2.817 0-3.568-2.817-3.568-5.715 0-2.919.73-5.715 3.568-5.715 2.818 0 3.589 2.817 3.589 5.715 0 2.898-.77 5.715-3.589 5.715zM66.917 30.168c8.945 0 12.766-6.124 13.702-10.124l-6.14-1.756c-.569 2.082-2.561 5.43-7.562 5.43-4.31 0-8.294-3.144-8.294-8.573 0-6.082 4.35-8.858 8.213-8.858 5.082 0 6.912 3.388 7.359 5.388l6.058-1.918C79.318 5.593 75.496 0 66.836 0c-8.05 0-14.88 6.123-14.88 15.145 0 9.022 6.667 15.023 14.961 15.023zm30.29-.613V.612h-5.489c-.529 2.98-3.13 5.348-7.359 5.43v4.327h6.465v19.186h6.383z" transform="translate(182 205)"/>
        </g>
    </g>
</svg>
