<?xml version="1.0" encoding="UTF-8" standalone="no"?>
<!DOCTYPE svg PUBLIC "-//W3C//DTD SVG 1.1//EN" "http://www.w3.org/Graphics/SVG/1.1/DTD/svg11.dtd">
<svg width="250px" height="94px" version="1.1" xmlns="http://www.w3.org/2000/svg" xmlns:xlink="http://www.w3.org/1999/xlink" xml:space="preserve" xmlns:serif="http://www.serif.com/" style="fill-rule:evenodd;clip-rule:evenodd;stroke-linejoin:round;stroke-miterlimit:2;">
    <rect id="Artboard1" x="0" y="0" width="250" height="94" style="fill:none;"/>
    <g id="Artboard11" serif:id="Artboard1">
        <g id="Myneva" transform="matrix(0.802109,0,0,0.802109,4.52325,9.89748)">
            <g id="icon">
                <path d="M95,26.3C93.7,18 89.4,10.8 82.9,6.1C72.3,-1.5 57,-1.1 44.7,5.8C35.6,5.9 24.8,9 16.3,14.1C6.1,20.1 0.5,27.9 0.5,36C0.5,51.9 21.4,60.8 33.9,66.1C35.3,66.7 36.7,67.3 37.9,67.8C38.3,68 38.7,68.2 39.1,68.4C40.4,69 41.4,69.5 42,70C44.6,71.9 46.6,75.7 48.6,79.4C51.9,85.3 55.5,92 62.5,92C71.6,92 76.2,76.9 79.5,65.8C80,64.3 80.4,63 80.7,61.9C83.1,60 85.3,57.8 87.1,55.3C93.6,46.7 96.5,36.1 95,26.3ZM75.7,58.5C70.4,62.4 64.1,64.8 57.8,65.5C58.6,64.8 59.3,64.1 60,63.3C63.2,59.6 64.7,54.8 64.3,50C63.5,39.9 54.6,32.4 44.6,33.2C38.3,33.7 33,37.4 30.1,42.5C29.8,34.5 32.2,26.4 36.8,20.3C39.4,16.8 42.6,13.9 46.2,11.7C52.7,12 59.4,15 65.2,20.1C77.9,31.3 78.5,48.6 75.7,58.5ZM41.4,63C41.3,63 41.3,63 41.4,63C40.3,62.4 39.2,61.8 38.2,61.1C35.6,59 33.9,55.9 33.6,52.4C33.1,45.5 38.2,39.5 45.1,38.9L46.1,38.9C52.6,38.9 58.1,43.9 58.6,50.4C58.9,53.7 57.8,57 55.6,59.5C53.4,62 50.4,63.6 47.1,63.9C45.1,64.1 43.1,63.7 41.4,63ZM6.3,36C6.3,30.1 11,24 19.3,19.1C24.2,16.2 30,14 35.7,12.7C34.5,14 33.3,15.3 32.2,16.7C25.8,25.2 23.1,36.2 24.8,47C25.3,50.6 26.4,54 27.8,56.9C17.5,52.2 6.3,45.3 6.3,36ZM62.5,86.2C59.2,86.2 56.9,82.4 53.8,76.6C52.8,74.8 51.9,73 50.8,71.3C51.8,71.4 52.7,71.4 53.7,71.4C60.3,71.4 67.1,69.8 73.2,66.7C70.9,73.8 66.7,86.2 62.5,86.2ZM82.7,51.5C83.5,40.3 80.5,25.9 69.1,15.7C64.8,11.9 60.1,9.2 55.3,7.5C58.3,6.6 61.4,6.2 64.4,6.2C69.9,6.2 75.1,7.7 79.5,10.8C84.7,14.6 88.2,20.4 89.2,27.1C90.5,35.3 88.1,44.2 82.7,51.5Z" style="fill:rgb(237,103,57);fill-rule:nonzero;"/>
            </g>
            <g id="myneva">
                <g>
                    <path d="M244.4,46.4L244.4,47.3C244.4,47.6 244.4,47.9 244.3,48.2L224.4,48.2C224.5,49.1 224.7,50 225.1,50.8C225.5,51.6 226.1,52.3 226.8,52.8C227.5,53.4 228.3,53.8 229.1,54.1C230,54.4 230.9,54.6 231.8,54.6C233.4,54.6 234.8,54.3 236,53.7C237.1,53.1 238.1,52.3 238.8,51.2L243.2,54.7C240.6,58.2 236.9,59.9 232,59.9C230,59.9 228.1,59.6 226.4,58.9C224.7,58.3 223.2,57.4 221.9,56.2C220.6,55 219.7,53.6 219,51.9C218.3,50.2 217.9,48.3 217.9,46.1C217.9,44 218.3,42.1 219,40.3C219.7,38.6 220.7,37.1 221.9,35.9C223.1,34.7 224.6,33.7 226.3,33.1C228,32.4 229.8,32.1 231.8,32.1C233.6,32.1 235.3,32.4 236.9,33C238.4,33.6 239.8,34.5 240.9,35.7C242,36.9 242.9,38.4 243.5,40.1C244.1,42 244.4,44.1 244.4,46.4ZM237.9,43.5C237.9,42.7 237.8,41.9 237.5,41.1C237.3,40.3 236.9,39.7 236.4,39.1C235.9,38.5 235.2,38.1 234.5,37.7C233.7,37.4 232.8,37.2 231.7,37.2C229.7,37.2 228.1,37.8 226.7,39C225.3,40.2 224.6,41.7 224.4,43.6L237.9,43.6L237.9,43.5Z" style="fill:rgb(0,56,87);fill-rule:nonzero;"/>
                    <path d="M293.4,48.1C293.4,50.2 293.8,52 292.7,53.2C291.5,54.4 289.6,54.8 287.4,54.8C286.9,54.8 285.5,54.7 284.9,54.6C284.4,54.5 283.9,54.3 283.4,54.1C283,53.8 282.6,53.5 282.3,53.1C282,52.7 281.9,52.2 281.9,51.6C281.9,50.6 282.2,49.9 282.9,49.3C283.6,48.7 284.4,48.3 285.3,48C286.3,47.7 287.3,47.5 288.5,47.4C289.7,47.3 290.8,47.3 291.8,47.3L293.3,47.3L293.3,48.1L293.4,48.1ZM299.6,43.2C299.6,41.9 299.4,40.6 299.1,39.3C298.8,38 298.1,36.8 297.3,35.8C296.4,34.8 295.2,33.9 293.7,33.2C292.2,32.5 290.3,32.2 288,32.2C286,32.2 284,32.5 282.1,33.2C280.2,33.9 278.4,34.9 277,36.3L280.4,40.3C281.2,39.5 282.3,38.8 283.6,38.2C284.9,37.6 286.2,37.3 287.6,37.3C289.2,37.3 290.6,37.7 291.8,38.5C293,39.3 293.6,40.5 293.6,42.1L293.6,42.8C291.6,42.8 289.5,42.9 287.4,43.1C285.3,43.3 283.3,43.7 281.6,44.3C279.9,44.9 278.4,45.8 277.3,47C276.2,48.2 275.6,49.7 275.6,51.7C275.6,53.2 275.9,54.5 276.6,55.5C277.2,56.5 278,57.4 279,58C280,58.6 281,59.1 282.2,59.4C283.3,59.7 286.9,59.8 287.2,59.8C288.3,59.8 289.7,59.9 291,59.8C292,59.7 292.9,59.5 293.6,59.4C294.5,59.2 295.7,58.7 296.6,58.1C297.7,57.4 298.5,56.4 299,55.6C299.6,54.5 299.9,53.5 299.9,51.8L299.9,47.1C299.6,45 299.6,43.2 299.6,43.2" style="fill:rgb(0,56,87);fill-rule:nonzero;"/>
                    <path d="M154.3,39.4C154,37.8 153.1,36.2 152.2,35.3C150.9,33.8 147.9,32.2 142.7,32.3C140.4,32.3 138.5,32.5 135.7,33.4C135.4,33.5 134.6,33.8 133.7,34.2C132.1,33.2 129.6,32.4 125.5,32.4C123.2,32.4 121.3,32.6 118.5,33.5C117.8,33.7 115.2,34.7 113.8,35.4L113.8,59.3L120.4,59.3L120.4,39.7C122.6,37.9 124.4,37.4 125.5,37.4C128.5,37.5 129.3,38.6 130.1,39.9C130.5,40.5 130.7,41.3 130.8,42.1C130.9,42.7 131,43.5 131,44.2L131,59L137.5,59L137.5,39.6C139.7,37.8 141.5,37.3 142.6,37.3C145.6,37.4 146.4,38.5 147.2,39.8C147.6,40.4 147.8,41.2 147.9,42C148,42.8 148.1,44 148.1,44.8L148.1,59L154.7,59L154.7,43C154.7,41.9 154.5,40.7 154.3,39.4" style="fill:rgb(0,56,87);fill-rule:nonzero;"/>
                    <g>
                        <path d="M158,33.1L165.2,33.1L172.5,52.1L172.6,52.1L179.1,33.1L185.9,33.1L173.5,64.8C173,66 172.5,67.1 172,68C171.5,68.9 170.8,69.7 170,70.3C169.2,70.9 168.3,71.4 167.3,71.7C166.3,72 165,72.2 163.6,72.2C163.1,72.2 162.5,72.2 161.9,72.1C161.3,72 160.8,71.9 160.2,71.8L160.7,66.1C161.1,66.2 161.6,66.3 162,66.4C162.4,66.5 162.8,66.5 163.2,66.5C163.9,66.5 164.5,66.4 164.9,66.3C165.4,66.1 165.8,65.9 166.1,65.5C166.4,65.2 166.7,64.7 167,64.2C167.3,63.7 167.5,63.1 167.8,62.4L169.1,59.1L158,33.1Z" style="fill:rgb(0,56,87);fill-rule:nonzero;"/>
                    </g>
                    <path d="M201.7,32.2L201.2,32.2C198.9,32.2 196.6,32.4 193.8,33.3C193.1,33.5 190.5,34.5 189.1,35.2L189.1,59.1L195.7,59.1L195.7,39.8C197.9,38 200,37.5 201.1,37.5L201.2,37.5C204.2,37.6 205,38.7 205.8,40C206.2,40.6 206.4,41.4 206.5,42.2C206.6,43 206.7,44.2 206.7,45L206.7,59.2L213.3,59.2L213.3,43.2C213.3,41.9 213.1,40.7 212.9,39.4C212.6,37.8 211.6,36.2 210.8,35.3C209.5,33.8 206.5,32.2 201.7,32.2" style="fill:rgb(0,56,87);fill-rule:nonzero;"/>
                    <g>
                        <path d="M245.9,33.1L253.1,33.1L260,52.2L260.1,52.2L267,33.1L273.9,33.1L263.5,59.3L256.5,59.3L245.9,33.1Z" style="fill:rgb(0,56,87);fill-rule:nonzero;"/>
                    </g>
                </g>
            </g>
        </g>
    </g>
</svg>
